<?xml version="1.0" standalone="no"?>
<!DOCTYPE svg PUBLIC "-//W3C//DTD SVG 20010904//EN"
 "http://www.w3.org/TR/2001/REC-SVG-20010904/DTD/svg10.dtd">
<svg version="1.0" xmlns="http://www.w3.org/2000/svg"
 width="260.000000pt" height="260.000000pt" viewBox="0 0 260.000000 260.000000"
 preserveAspectRatio="xMidYMid meet">
<metadata>
Created by potrace 1.11, written by Peter Selinger 2001-2013
</metadata>
<g transform="translate(0.000000,260.000000) scale(0.100000,-0.100000)"
fill="#000000" stroke="none">
<path d="M781 2074 c-270 -45 -383 -152 -419 -399 -4 -27 -7 -203 -7 -390 0
-369 7 -431 59 -540 61 -126 182 -193 401 -224 79 -11 950 -8 1005 3 157 33
237 67 300 128 41 40 85 118 96 170 2 13 8 42 13 65 4 23 9 125 10 227 l2 186
-473 -2 -473 -3 0 -75 0 -75 379 0 378 0 -4 -135 c-4 -111 -8 -144 -27 -185
-27 -61 -45 -82 -93 -106 -87 -45 -144 -48 -658 -45 -267 1 -498 5 -515 9 -16
4 -54 20 -84 35 -43 21 -60 37 -78 72 -47 91 -54 173 -50 570 3 272 7 344 20
383 34 104 84 146 203 171 99 21 958 22 1057 1 116 -25 161 -56 196 -135 22
-51 29 -84 30 -150 l1 -46 93 1 92 0 -2 79 c-5 183 -86 308 -236 364 -138 52
-172 55 -667 57 -362 2 -484 0 -549 -11z"/>
</g>
</svg>
